<svg id="ORNGE" xmlns="http://www.w3.org/2000/svg" viewBox="0 0 830.33 830.32"><defs><style>.cls-1{fill:#f57215;}.cls-2,.cls-3{fill:#f79211;}.cls-3{stroke:#f79211;stroke-miterlimit:10;}</style></defs><title>MEMLA isotipo</title><path class="cls-1" d="M364.18,697.29q11.61-67.35,23.21-134.71c3.13-18.13,5.48-36.38,8.06-54.59s5.4-36.67,9.4-54.76c1-4.44,2-8.88,3.19-13.29.57-2.19,1.17-4.37,1.78-6.55a13,13,0,0,1,.9-3.12c.63-1,.76-.71,1.82-.23,8.79,3.94,17.36,8.54,25.94,12.95q25.83,13.27,51,27.73c3.1,1.78,6.21,4,9.47,5.47,2.2,1,5.81-.2,4.36-3.16a11.44,11.44,0,0,0-2.35-2.56c-.86-.91-1.79-1.75-2.66-2.64q-2.62-2.65-5.13-5.4a196,196,0,0,1-15.17-18.94c-4.63-6.54-8.89-13.33-12.88-20.28s-7.81-14.23-11.43-21.49c-3.72-7.47-7.27-15-10.81-22.56-3.64-7.8-7.26-15.62-11-23.39-8.52-17.87-19.48-37.79-38.81-42.13-15.62-3.51-32,5-42.22,17.33s-15.63,27.82-20.81,43L244.49,624.52c-6.48,19-13,39.79-6,58.58C247.23,706.67,273.4,718,297,726.79c18.74,7,42.63,13,56.45-1.49C360.42,718,362.45,707.3,364.18,697.29Z" transform="translate(-84.84 -84.84)"/><path class="cls-2" d="M734.84,388.66c.22-25.11-2.2-50.45-9.29-74-5.82-19.27-22.31-39.87-43.76-41-32.68-1.76-56,35.51-72.5,58.19a1029.71,1029.71,0,0,0-60,92.51q-13.18,23-25.19,46.57c-2.42,4.77-5.24,10.72-9.83,13.81s-11,3.5-16.12,2.27c-4.65-1.11-8.92-3.39-13.13-5.65-13.32-6.66-26.31-14.11-39.44-21.15l-9.52-5.1-4.75-2.55c-.82-.43-3.69-2.59-4.56-2.32-1.58.48,4.73,16.66,5.44,18.37,2.66,6.39,5.79,12.58,9,18.71a164.61,164.61,0,0,0,9.82,17,104.38,104.38,0,0,0,12.51,15.23l.14.13c18.81,18.65,47.87,29.52,72.4,19.52,19.79-8.07,33.87-23.38,47.23-39.46l28.28-34c6.3-7.58,12.61-15.13,18.74-22.85,2.17-2.74,4.32-5.49,6.51-8.21,1.56-1.94,4.51-3.27,6.93-2.13,3,1.4,3.35,5.43,3.18,8.72-.44,8.3-1.62,16.53-2.81,24.76-2.71,18.79-4.71,37.52-7.9,56.18-.23,1.31-.45,2.61-.67,3.92a5.54,5.54,0,0,1,.53,2.81,5.22,5.22,0,0,1,.64,1.95c.76,6.09-1.32,12.49-2,18.54a168,168,0,0,1-3.61,19.65,128.17,128.17,0,0,0-3.14,21c-.42,7-1.91,13.82-2.8,20.75,0,.08,0,.14-.05.22a141.4,141.4,0,0,1-1.9,16c-.48,10.64-.65,21.36-.34,32.2.68,24.49,3.33,50,16.54,70.66,10.43,16.3,26.64,28,44.63,35.53q1.17-3.23,2.3-6.5c.55-4.58,2.24-9,3.48-13.47.27-1.29.55-2.57.85-3.85.77-3.28,1.19-6.6,1.85-9.9.34-1.67,1-3.29,1.37-4.92.14-1,.25-2,.29-3a4.4,4.4,0,0,1,.09-.74,4.79,4.79,0,0,1-.21-1.78c.35-5.48,2.78-10.6,3.48-16.08.72-5.63,1.08-11.17,2.23-16.74,1.2-5.81,1.87-11.73,2.8-17.59q.75-4.68,1.49-9.35a5.17,5.17,0,0,1-.4-3.07c.82-5.07,1.42-10.18,2.43-15.21.56-2.78.52-5.5,1-8.28.27-1.72.84-3.33,1.1-5,0-.4.08-.81.14-1.23a5.27,5.27,0,0,1,.22-1.29,32.24,32.24,0,0,1,1.21-4.45c1.22-10.16,3.34-20.21,4.67-30.35.13-1.45.28-2.89.5-4.31.37-3.58.62-7.17.66-10.78A4.68,4.68,0,0,1,717,574l4.62-42.6L730,454.58c.95-8.72,1.65-17.43,2.55-26.21C733.85,415.4,734.72,402.06,734.84,388.66Z" transform="translate(-84.84 -84.84)"/><path class="cls-2" d="M736.34,388.66c.17-22.32-1.64-44.79-7.15-66.47-4.28-16.81-12.21-32.88-27-42.88-13.4-9.09-29.81-9-44-1.78s-25,19.67-34.54,32c-10.92,14.16-21.23,28.93-31.36,43.66Q573,381.34,555.55,410.7q-17.62,29.64-33.22,60.43c-2.1,4.15-4.27,8.7-8,11.69-3.91,3.16-9.56,3.85-14.39,3.05-5.44-.91-10.22-3.76-15.05-6.22q-7.65-3.88-15.18-8c-13.43-7.26-26.93-14.44-40.2-22-1.74-1-4.3-1.64-4.55,1.08-.19,2.06.84,4.51,1.45,6.42a150.72,150.72,0,0,0,6.13,16.08c8.54,19,18.84,38.43,35,52.06,13.58,11.45,31.1,19.34,49.08,19.19,18.54-.16,35-10.3,48.22-22.56a224.86,224.86,0,0,0,19.76-21.52q11.48-13.79,22.94-27.6c7.36-8.86,14.78-17.68,22-26.67q2.68-3.35,5.33-6.71c1.66-2.09,3.41-5.33,6.29-5.75,5.69-.84,4.19,8.72,3.94,11.85-1,11.65-3,23.2-4.48,34.78s-3,23.24-4.8,34.82c-.43,2.74-.89,5.48-1.36,8.21a14.59,14.59,0,0,0,.14,6,19.88,19.88,0,0,1,.74,4.18,32.3,32.3,0,0,1-.19,3.54c-.31,3-1,6-1.46,8.92-.91,5.56-1.53,11.12-2.69,16.65s-2.57,11.23-3.42,16.93c-.8,5.38-1,10.8-1.67,16.18s-2,10.8-2.34,16.24c-.39,5.67-1.7,11.28-1.94,16.94-.24,5.82-.39,11.65-.41,17.47-.09,20.46.63,41.62,6.57,61.35a87.76,87.76,0,0,0,31.88,45.68,112.52,112.52,0,0,0,23.62,13.31,1.53,1.53,0,0,0,2.2-.89,52.3,52.3,0,0,0,2.58-8.32,82.44,82.44,0,0,1,2.41-9c1.71-5.67,2.26-11.54,3.68-17.26a37.66,37.66,0,0,0,1.52-7.5c0-1.15-.16-2.22-.05-3.38a31.11,31.11,0,0,1,.92-4.69c.71-2.8,1.63-5.56,2.16-8.41.57-3,.78-6.08,1.12-9.12.72-6.4,2.1-12.68,3-19.05.43-2.94.85-5.88,1.32-8.82s1.47-6.12,1.37-9c0-.72-.44-1.24-.46-2a17.51,17.51,0,0,1,.32-2.34c.23-1.59.47-3.18.71-4.77.49-3.32,1.17-6.61,1.66-9.93.82-5.56,1.22-11.22,2.7-16.68,1.65-6.08,2.17-12.58,3.22-18.82,1-6.07,1.93-12.14,2.66-18.25.33-2.75.52-5.52.62-8.28.06-1.46-.19-3.18.56-4.51a6.8,6.8,0,0,0,1.17-3.61l2.1-19.36q4.23-38.87,8.44-77.72c3.11-28.67,6.77-57.49,7.07-86.35a1.5,1.5,0,0,0-3,0c-.27,25.94-3.33,51.83-6.12,77.59Q723,505.13,718.78,544l-2.1,19.36-.53,4.84c-.16,1.48,0,3.47-.52,4.84-.25.66-.73,1.19-1,1.86a8.85,8.85,0,0,0-.55,3.49c-.4,12.65-3,25-4.85,37.49-.87,5.7-2,11.34-3.24,17-.67,3-.66,6-1.13,9s-1.13,6.3-1.59,9.47c-.41,2.74-1.37,5.92-1.08,8.7a12.6,12.6,0,0,1,0,3.83c-.27,1.72-.55,3.43-.82,5.15-1,6.17-1.72,12.39-2.93,18.53-1.35,6.81-1.4,13.87-3,20.62-.72,3.1-1.78,6.11-2.38,9.24-.54,2.78-.18,5.45-.55,8.21a45.11,45.11,0,0,1-1.26,4.83c-.44,1.75-.7,3.56-1,5.34-.54,3.09-1.15,6.19-1.9,9.24-.81,3.32-2.06,6.51-2.82,9.84a47.36,47.36,0,0,1-1.22,5.27q-.86,2.43-1.73,4.86l2.2-.9c-17.15-7.24-33.07-18.31-43.46-34-11.15-16.84-14.94-37.21-16.33-57-.74-10.62-.91-21.28-.74-31.92a134.43,134.43,0,0,1,1-17.49c.81-5.4,1.09-10.86,1.91-16.25s1.79-10.6,2.22-16a151.82,151.82,0,0,1,2.13-17c1.05-5.41,2.43-10.75,3.41-16.17s1.59-10.95,2.54-16.4a52.71,52.71,0,0,0,.87-7.07,28.07,28.07,0,0,0-.76-6.62c-.88-4.72.81-9.9,1.53-14.63,1.69-11.06,3.08-22.15,4.54-33.24,1.51-11.42,3.47-22.81,4.44-34.3.32-3.84,1-8.43-.83-12a6.39,6.39,0,0,0-8.72-2.59c-2,1-3.22,2.71-4.57,4.4-1.78,2.24-3.55,4.49-5.33,6.72-3.56,4.48-7.19,8.9-10.83,13.31q-11.17,13.5-22.4,26.95c-12.84,15.46-25.2,32.22-41.41,44.39-7.46,5.6-16,10.46-25,12.76a56.65,56.65,0,0,1-26.53-.06c-18.24-4.23-34.09-15.55-45.6-30.12-6.84-8.66-12-18.44-16.95-28.26a176.82,176.82,0,0,1-8.8-20.05c-1-2.68-1.93-5.38-2.64-8.14,0-.19-.36-2.53-.44-2.57l-.5.49c-.69.37-.68.62,0,.74a6.43,6.43,0,0,0,1,.59c.68.41,1.33.87,2,1.27,4.58,2.67,9.38,5,14.05,7.53,9,4.84,18,9.85,27,14.69,5,2.67,10,5.22,15.05,7.84,4.3,2.25,8.82,4.37,13.68,5a23.11,23.11,0,0,0,12.77-1.79c3.77-1.8,6.47-5.07,8.61-8.56,2.53-4.12,4.55-8.59,6.77-12.88q4-7.71,8.08-15.33a1027.76,1027.76,0,0,1,71-113.59c9.24-12.82,18.1-26.08,28.8-37.76,10.17-11.11,23-21.81,38.47-23.64,17.57-2.08,32.48,8.87,41.57,23.1,5,7.85,7.87,16.41,10.11,25.4A222.92,222.92,0,0,1,732,356.14a309.68,309.68,0,0,1,1.36,32.52A1.5,1.5,0,0,0,736.34,388.66Z" transform="translate(-84.84 -84.84)"/><circle class="cls-1" cx="317.8" cy="178.41" r="33.05"/><path class="cls-3" d="M882.07,338.59A414.89,414.89,0,1,0,500,914.66q19.44,0,38.6-1.77c2.29-.34,4.61-.78,6.83-1l1-.12a15.58,15.58,0,0,1,5.85-1.28,3.3,3.3,0,0,1,1-.31,44.82,44.82,0,0,0,6.09-1.92,33.73,33.73,0,0,1,4-.91l2.33-.89c5.88-2.16,11.69-4.58,17.37-7.2,10.27-4.76,20.33-10.37,29.08-17.6,9.5-7.85,18-17.44,26.3-26.51,2.38-2.59,4.65-5.29,6.8-8.07a4.68,4.68,0,0,1,.34-.72c2.22-3.9,5-7.43,7.44-11.16,1.4-2.12,2.79-4.24,4.35-6.23A362.44,362.44,0,0,1,500,864.66c-201.08,0-364.66-163.58-364.66-364.66S298.92,135.34,500,135.34,864.66,298.92,864.66,500c0,109.12-48.18,207.19-124.39,274.08a76,76,0,0,1,8,10.69c1.26,2.15,2.43,4.49,3.69,6.78.54.68,1.08,1.37,1.63,2,2.52,3.07,5.12,6.1,7.85,9,4.25,2.79,9.27,4.93,12.66,8.51q9.76-8.62,19.07-17.89a415.1,415.1,0,0,0,88.86-454.62Z" transform="translate(-84.84 -84.84)"/><path class="cls-2" d="M459.77,904c29.3,11.54,62.3,13.61,93,6.89,30.48-6.67,57.64-22.9,79.06-45.32,21.62-22.64,37.09-50.47,47.74-79.69,10.88-29.87,16.9-61.22,21.74-92.55,5.46-35.31,10.23-70.73,15.3-106.1l2-13.67c.27-1.88-2.62-2.69-2.9-.8-5.11,35.69-10.12,71.4-15.35,107.07-4.54,31-9.72,62.06-19.16,92-9.37,29.77-23.2,58.5-43.37,82.57-19.49,23.28-44.73,41.65-74,50.53a160,160,0,0,1-92.3,0q-5.52-1.7-10.89-3.81c-1.8-.71-2.58,2.18-.8,2.88Z" transform="translate(-84.84 -84.84)"/><path class="cls-2" d="M684,753.42c.08-9.52-10.81-12-16.55-7.45a11.2,11.2,0,0,0-7.56-2.27,10.38,10.38,0,0,0-4.55-7.84q4.27-10.92,8.59-21.84c2-5-2.18-11-7-12.3-5.69-1.56-10.31,1.94-12.31,7Q625,758.29,606.2,808.21q-2,1.95-4,4A202.28,202.28,0,0,0,560,854.46c-6.71,9.06,8.44,20.83,15.71,12.12q1.59-1.89,3.24-3.72a9.57,9.57,0,0,0,8.8-.28c0,1.16,0,2.33,0,3.51.33,8.13,10.68,13,16.44,7.93,4.16,2.06,9.44,1.47,12.42-3.88q3-5.42,6-10.82c2.71-4.49,5.59-8.86,8.54-13.19a8.59,8.59,0,0,0,8.33-1,70,70,0,0,0,17.62-16.39c5.3-7,8.52-14.91,11.73-23Q674,792.81,679,780c1.54-3.91,3.45-7.84,4.4-11.94C684.59,763.08,683.94,758.39,684,753.42Z" transform="translate(-84.84 -84.84)"/><path class="cls-2" d="M634.44,523.87q-6.23,50.8-12.47,101.61c-3.7,29.91-7.75,59.89-15,89.17-7.2,29-17.7,57.35-33.94,82.5-15.23,23.58-36,44.51-62.14,55.52a118.37,118.37,0,0,1-61.44,8,4.18,4.18,0,0,1-1.89,2.74,121.52,121.52,0,0,0,52.89-3.83c27.7-8.38,50.48-27.19,67.66-50.14,18-24,30-52.08,38.21-80.78,8.51-29.61,13.17-60.16,17.1-90.67,4.35-33.69,8.32-67.44,12.46-101.16l1.59-13C637.68,522,634.68,522,634.44,523.87Z" transform="translate(-84.84 -84.84)"/><path class="cls-2" d="M637.78,753c6,3.83,15.94,1.2,15.7-7.94-.23-8.89-1.91-17.61-3.51-26.32a143.41,143.41,0,0,1-2.2-24.82c-.07-8.79-.23-17.8-2.68-26.31-2.14-7.44-3.76-16.3-10.58-20.79-6.43-4.23-15.07,1.35-15,8.63,0,8.2-2,16.12-4.14,24-.65,3.16-.88,6.39-1.61,9.54-.55,2.34-1.19,4.68-1.85,7a35.4,35.4,0,0,1-1.61,8.72,4.23,4.23,0,0,1-.25.58,101.83,101.83,0,0,1-3.45,16.83c-2,6.6-4.08,13.18-6.13,19.77a7.7,7.7,0,0,0-.6.54,161.09,161.09,0,0,1-5.23,15.44q-.12.28-.27.57c-3.63,10.89-9,21.32-14.32,31.35-3.79,7.09-9,13.25-13.87,19.58-3.19,4.13-7.48,8.33-9.25,13.07-4.77,4-9,8.6-13.75,12.74a104,104,0,0,1-19,12.93A125.26,125.26,0,0,1,476,862.42c-9.71.88-13.81,13-5,18.64,10.6,6.76,26.07,2.88,37.67,1.16a135.83,135.83,0,0,0,38.06-11c21.75-10.18,38.61-28.06,59.26-40.05,8.08-4.69,5-15.09-1.6-17.95l0-.06a87.87,87.87,0,0,0,13.24-19.42c2.15-4.43,4-9,6-13.48.76.85,1.5,1.71,2.18,2.61,3.28,4.28,8.61,6.55,13.68,3.59,4.22-2.47,6.9-9.37,3.59-13.69a105.71,105.71,0,0,0-9.16-10.37c1.19-2.65,2.3-5.32,3.24-8C637.34,753.89,637.55,753.45,637.78,753Z" transform="translate(-84.84 -84.84)"/><circle class="cls-2" cx="672.33" cy="707.79" r="25.61"/></svg>