<svg id="Capa_10" data-name="Capa 10" xmlns="http://www.w3.org/2000/svg" viewBox="0 0 872.86 465.04"><defs><style>.cls-1{fill:#f57215;}.cls-2,.cls-3{fill:#f79211;}.cls-3{stroke:#f79211;stroke-miterlimit:10;}</style></defs><title>MEMLA imagotipo</title><path class="cls-1" d="M219.84,610.39l13-75.38c1.75-10.14,3.07-20.35,4.51-30.54s3-20.52,5.26-30.64q.83-3.74,1.78-7.44c.32-1.22.66-2.44,1-3.66a6.8,6.8,0,0,1,.51-1.75c.35-.53.42-.4,1-.13,4.92,2.21,9.72,4.78,14.51,7.25q14.46,7.42,28.57,15.51a59.72,59.72,0,0,0,5.3,3.07c1.23.54,3.25-.12,2.44-1.77a6.69,6.69,0,0,0-1.32-1.44c-.48-.5-1-1-1.49-1.47-1-1-1.93-2-2.86-3a109.46,109.46,0,0,1-8.49-10.6c-2.59-3.66-5-7.46-7.21-11.35s-4.37-8-6.4-12-4.07-8.4-6-12.63-4.06-8.73-6.14-13.08c-4.77-10-10.9-21.15-21.71-23.58-8.74-2-17.89,2.82-23.63,9.7s-8.74,15.56-11.64,24q-24,70.11-47.92,140.21c-3.62,10.61-7.25,22.26-3.36,32.78,4.89,13.19,19.54,19.52,32.71,24.44,10.49,3.92,23.86,7.26,31.59-.83C217.74,622,218.88,616,219.84,610.39Z" transform="translate(-63.32 -267.48)"/><circle class="cls-1" cx="178.04" cy="100.05" r="18.49"/><path class="cls-2" d="M273.33,726a90.47,90.47,0,0,0,52,3.85,87.08,87.08,0,0,0,44.23-25.36c12.1-12.66,20.75-28.23,26.71-44.58,6.09-16.72,9.46-34.26,12.17-51.79,3-19.76,5.73-39.58,8.56-59.37l1.1-7.65c.15-1-1.47-1.5-1.62-.44-2.86,20-5.67,39.95-8.59,59.91-2.55,17.34-5.45,34.72-10.72,51.48s-13,32.73-24.27,46.2c-10.91,13-25,23.31-41.43,28.28a89.48,89.48,0,0,1-51.64,0q-3.09-.94-6.09-2.13c-1-.4-1.45,1.22-.45,1.61Z" transform="translate(-63.32 -267.48)"/><path class="cls-2" d="M371.07,513.35q-3.49,28.42-7,56.86c-2.08,16.74-4.34,33.51-8.41,49.89-4,16.21-9.91,32.09-19,46.16-8.53,13.2-20.15,24.91-34.77,31.07a66.2,66.2,0,0,1-34.38,4.49,2.37,2.37,0,0,1-1.06,1.54,68.17,68.17,0,0,0,29.6-2.14c15.49-4.69,28.24-15.22,37.85-28.06C344,659.73,350.7,644,355.31,628c4.76-16.57,7.37-33.66,9.57-50.73,2.43-18.86,4.66-37.74,7-56.61q.45-3.63.89-7.27C372.88,512.28,371.2,512.29,371.07,513.35Z" transform="translate(-63.32 -267.48)"/><path class="cls-3" d="M409,376.51c-7.49-5.08-16.67-5.05-24.61-1s-14,11-19.33,17.92c-6.11,7.93-11.87,16.19-17.54,24.44Q336.68,433.6,326.92,450q-9.85,16.59-18.59,33.81c-1.17,2.32-2.39,4.87-4.45,6.55a10.38,10.38,0,0,1-8.05,1.7c-3-.51-5.72-2.1-8.43-3.48s-5.67-2.93-8.49-4.45c-7.51-4.07-15.07-8.09-22.49-12.31-1-.55-2.41-.92-2.55.61a10.19,10.19,0,0,0,.81,3.59,82,82,0,0,0,3.44,9c4.77,10.65,10.53,21.51,19.58,29.14,7.6,6.4,17.4,10.82,27.46,10.73,10.38-.09,19.58-5.76,27-12.62a127.35,127.35,0,0,0,11.06-12L356,484.81c4.12-5,8.27-9.89,12.3-14.92,1-1.25,2-2.51,3-3.76s1.91-3,3.52-3.22c3.18-.47,2.35,4.88,2.2,6.63-.53,6.52-1.65,13-2.5,19.46s-1.67,13-2.69,19.48c-.24,1.54-.5,3.07-.76,4.6a8.35,8.35,0,0,0,.08,3.34,11.15,11.15,0,0,1,.42,2.33,18.62,18.62,0,0,1-.11,2c-.18,1.68-.55,3.33-.82,5-.51,3.12-.85,6.23-1.51,9.32s-1.43,6.28-1.91,9.48c-.45,3-.55,6-.93,9.05s-1.11,6-1.31,9.09-.95,6.31-1.09,9.48-.21,6.51-.23,9.77v2a5.37,5.37,0,0,0-1,3.08c0,4.58-1.11,9-2.31,13.44-.37,1.77-.5,3.58-.91,5.34-.3,1.31-.66,2.62-1,3.93a19.73,19.73,0,0,1-.9,4.88,3.09,3.09,0,0,1-.14.32,57.3,57.3,0,0,1-1.93,9.42q-1.69,5.53-3.43,11.06l-.34.3c-.88,2.92-1.76,5.84-2.92,8.64l-.15.32a114.93,114.93,0,0,1-8,17.55c-2.12,4-5,7.41-7.76,10.95-1.78,2.31-4.18,4.66-5.17,7.31-2.67,2.26-5.05,4.82-7.7,7.13a57.8,57.8,0,0,1-10.63,7.24,70.17,70.17,0,0,1-26.95,8,6.12,6.12,0,0,0-2.26.65C174.93,695.4,91.8,607.22,91.8,500c0-112.38,91.32-203.83,203.64-204l0-28a232,232,0,0,0,.38,464q10.88,0,21.6-1c1.28-.19,2.57-.44,3.82-.59l.57-.07a8.8,8.8,0,0,1,3.27-.72,2.19,2.19,0,0,1,.55-.17,25.43,25.43,0,0,0,3.41-1.07,18.49,18.49,0,0,1,2.23-.51c.44-.18.88-.34,1.3-.5,3.29-1.21,6.54-2.56,9.72-4a74.31,74.31,0,0,0,16.27-9.85c5.32-4.39,10.06-9.76,14.72-14.83,1.33-1.45,2.6-3,3.8-4.51a2.5,2.5,0,0,1,.19-.41c1.24-2.18,2.78-4.16,4.17-6.25.78-1.18,1.56-2.36,2.43-3.48l-.32.15.21-.27c3-3.92,4.76-8.34,6.56-12.88q2.84-7.2,5.68-14.4a48.17,48.17,0,0,0,2.46-6.68c0-.22.09-.44.13-.67a.81.81,0,0,0,1-.55,29.44,29.44,0,0,0,1.45-4.65,43.74,43.74,0,0,1,1.35-5c.95-3.17,1.26-6.46,2.05-9.66a20.79,20.79,0,0,0,.86-4.19c0-.65-.09-1.25,0-1.9a16.84,16.84,0,0,1,.51-2.62c.4-1.57.91-3.11,1.21-4.7s.44-3.41.63-5.11c.4-3.58,1.17-7.09,1.69-10.65.24-1.65.47-3.3.73-4.94a27.32,27.32,0,0,0,.77-5c0-.4-.24-.7-.25-1.14a8.58,8.58,0,0,1,.18-1.31l.39-2.67c.28-1.85.65-3.7.93-5.55a79.68,79.68,0,0,1,1.51-9.34,106,106,0,0,0,1.8-10.52c.58-3.4,1.09-6.8,1.49-10.22.19-1.53.29-3.09.35-4.63a5.49,5.49,0,0,1,.31-2.52,3.8,3.8,0,0,0,.66-2l1.17-10.83q2.37-21.74,4.72-43.49c1.74-16,3.79-32.16,4-48.31a146.78,146.78,0,0,0-4-37.19C421.69,391.1,417.25,382.11,409,376.51Z" transform="translate(-63.32 -267.48)"/><path class="cls-3" d="M515.87,426.23c-1.87-5.58-3.94-11.1-6.25-16.55-.17-.39-.35-.78-.52-1.18l-25.67,11.29q3.18,7.41,5.79,15.12Z" transform="translate(-63.32 -267.48)"/><path class="cls-3" d="M522.07,448.31q-2.21-9.72-5.26-19.23l-26.66,8.68q2.64,8.21,4.6,16.7Z" transform="translate(-63.32 -267.48)"/><path class="cls-3" d="M456.86,374.84A204,204,0,0,1,473,398.9l24.48-13.77A230,230,0,0,0,479,357.52Z" transform="translate(-63.32 -267.48)"/><path class="cls-3" d="M525.55,467.28q-1.12-8.08-2.82-16l-27.35,6.15q1.47,6.84,2.46,13.85Z" transform="translate(-63.32 -267.48)"/><path class="cls-3" d="M507.9,405.75q-4.09-9.22-9-18L474.48,401.5q4.2,7.59,7.75,15.54Z" transform="translate(-63.32 -267.48)"/><path class="cls-3" d="M362.56,277.73a231.38,231.38,0,0,0-64.1-9.72l0,28a203.26,203.26,0,0,1,56,8.56Z" transform="translate(-63.32 -267.48)"/><path class="cls-3" d="M477.12,355.17a234.79,234.79,0,0,0-17.22-19.24q-3.34-3.33-6.81-6.52l-18.93,20.74A204.89,204.89,0,0,1,455,372.49Z" transform="translate(-63.32 -267.48)"/><path class="cls-3" d="M405,327.72a205.85,205.85,0,0,1,26.91,20.41l18.94-20.74a231,231,0,0,0-30.41-23.15Z" transform="translate(-63.32 -267.48)"/><path class="cls-3" d="M526,470.25l-27.71,4c.6,4.79,1.05,9.62,1.32,14.51l.25-.11q11.06-4.32,20.3-4.33a45.89,45.89,0,0,1,7.24.56Q526.88,477.51,526,470.25Z" transform="translate(-63.32 -267.48)"/><path class="cls-3" d="M357.28,305.43a202.92,202.92,0,0,1,45.2,20.7l15.44-23.48a231.46,231.46,0,0,0-31.76-16.43q-10.23-4.32-20.73-7.62Z" transform="translate(-63.32 -267.48)"/><path class="cls-2" d="M712.86,507.15c-1.41-5.54-4-10.83-8.88-14.12a14,14,0,0,0-14.48-.59c-4.65,2.38-8.24,6.48-11.38,10.55-3.59,4.66-7,9.53-10.32,14.38q-6.37,9.25-12.12,18.92-4.42,7.44-8.46,15.11a33.29,33.29,0,0,1-2.68,4.24,5.25,5.25,0,0,1-1.94,1.72A4.11,4.11,0,0,1,639,557a6.66,6.66,0,0,1-.82-.57c-.15-.14-.31-.27-.44-.41-.29-.3-.59-.58-.88-.87-.57-.58-1.14-1.18-1.69-1.78a66.4,66.4,0,0,1-5-6.23c-1.53-2.16-2.93-4.39-4.24-6.68s-2.58-4.69-3.77-7.08-2.39-4.94-3.55-7.43-2.4-5.14-3.61-7.7c-2.81-5.88-6.42-12.44-12.78-13.87-5.15-1.16-10.53,1.66-13.9,5.71s-5.15,9.16-6.86,14.14q-14.1,41.27-28.19,82.51c-2.14,6.25-4.27,13.1-2,19.29,2.88,7.76,11.49,11.49,19.25,14.38,6.17,2.31,14,4.27,18.59-.49,2.31-2.42,3-5.92,3.55-9.22q3.81-22.17,7.64-44.35c1-6,1.8-12,2.65-18s1.78-12.07,3.1-18c.27-1.22.57-2.44.88-3.66a2.76,2.76,0,0,1,.08-.27,2.41,2.41,0,0,1,.72-1.1c1.47-1.19,2.64,1,3.11,2.06,1.65,3.9,3.16,7.86,5.06,11.64q1.51,3,3.27,5.9c.13.2.27.4.42.59a35,35,0,0,0,7.11,8.59c4.47,3.76,10.24,6.36,16.16,6.31,6.11-.05,11.52-3.39,15.88-7.43a74,74,0,0,0,6.51-7.08l7.55-9.09c2.42-2.91,4.87-5.82,7.24-8.78.59-.73,1.17-1.47,1.75-2.21s1.12-1.75,2.07-1.89c1.87-.28,1.38,2.87,1.3,3.9-.23,2.81-.64,5.6-1,8.38-4.21,20-8,40.21-8.31,60.65-.11,7.47.3,15.13,3.2,22s8.71,13,16.09,14.46a14.74,14.74,0,0,0,2.82.28.66.66,0,0,0,.14,0,9.37,9.37,0,0,0,6.06-2c3.1-2.63,3.48-7.18,3.62-11.23l1.89-53c.16-1.42.31-2.84.47-4.26q1.38-12.79,2.77-25.59c1-9.44,2.23-18.92,2.33-28.43A86.09,86.09,0,0,0,712.86,507.15Z" transform="translate(-63.32 -267.48)"/><path class="cls-2" d="M544.56,626.24a24.57,24.57,0,0,0,2-12.91,8.29,8.29,0,0,0-1.93-4.87,6.67,6.67,0,0,0-5.25-1.72,20.35,20.35,0,0,0-5.9,1.65c-1.9.76-3.75,1.67-5.6,2.57-1,.47-1.93.94-2.91,1.38a184.57,184.57,0,0,1-19.67,9.15q-11.53,4.46-17.62,4.45t-10.88-7a26.29,26.29,0,0,1-4.92-15.51v-2.93l42.72.24q9.38,0,20.59-10.09a15.35,15.35,0,0,0,3.13-8.57,12.85,12.85,0,0,0-.95-6.29c-1.6-3.42-5.21-5.57-8.9-6.36a18.23,18.23,0,0,0-1.8-.29H474.06a67.13,67.13,0,0,1,5-16.68v0a32.49,32.49,0,0,1,3.68-7.42c4.46-6.69,11.34-11.29,18.76-14.15a54.47,54.47,0,0,1,14.35-3.33c5.41-.52,10.82-1.1,16.23-1.61a46.67,46.67,0,0,0,7.54-1.13,15.54,15.54,0,0,0,6.71-3.48,10.55,10.55,0,0,0,1.56-1.85,6.75,6.75,0,0,0,1-2.14,16.9,16.9,0,0,0-.07-6.83,21.89,21.89,0,0,0-2.19-6.39,20.62,20.62,0,0,0-10-8.72c-.36-.16-.73-.3-1.09-.45a42,42,0,0,0-14.6-2.46q-9.25,0-20.31,4.33a114.34,114.34,0,0,0-22.76,12.35A136.39,136.39,0,0,0,456.74,527a152.33,152.33,0,0,0-19.55,25,135.36,135.36,0,0,0-13.46,27.56q-4.8,13.81-4.8,25.28a45.66,45.66,0,0,0,7.32,25.28A49.85,49.85,0,0,0,446.85,648a65.79,65.79,0,0,0,29.31,6.5,51.53,51.53,0,0,0,10.3-1.17,197,197,0,0,0,32.77-11q16.15-7,22.82-13A14.87,14.87,0,0,0,544.56,626.24Z" transform="translate(-63.32 -267.48)"/><path class="cls-2" d="M479,571.2a9.25,9.25,0,0,1-3.06.07,3.58,3.58,0,0,1-2.51-1.61,3.89,3.89,0,0,1-.05-3.24,27.17,27.17,0,0,1,1.58-3,6.16,6.16,0,0,0,.81-2.34,3.71,3.71,0,0,1,.64-2.1,17.89,17.89,0,0,0-.65,5.08,6.64,6.64,0,0,0,.83,3,4.17,4.17,0,0,0,2.39,1.92,15.84,15.84,0,0,0,3.16.16c.28,0,.64.13.65.41s-.26.4-.5.5A15.18,15.18,0,0,1,479,571.2Z" transform="translate(-63.32 -267.48)"/><path class="cls-2" d="M472.65,601.34a2.17,2.17,0,0,0-.7,1,7.22,7.22,0,0,0-.12,1.74.82.82,0,0,1-.07.31.32.32,0,0,1-.24.18.33.33,0,0,1-.3-.18.92.92,0,0,1-.09-.37c-.05-.47-.1-.94-.13-1.41a4.1,4.1,0,0,1,0-.7,3.63,3.63,0,0,1,.16-.65,2,2,0,0,1,.49-1,1.74,1.74,0,0,1,1-.34,6,6,0,0,1,1.12,0c.34,0,.68,0,1,.05a7.21,7.21,0,0,1,2.15.48l-1.33.09a7.39,7.39,0,0,0-2.1.35A3.09,3.09,0,0,0,472.65,601.34Z" transform="translate(-63.32 -267.48)"/><path class="cls-2" d="M865.06,545.8a3.94,3.94,0,0,0,.7-1.14,10.47,10.47,0,0,1,.6-1.21,2.38,2.38,0,0,1,.64-.7.88.88,0,0,1,.82-.13,1.75,1.75,0,0,1,1.09,1.42,3.43,3.43,0,0,0,.18.7,1,1,0,0,0,.24.35.73.73,0,0,0,.76.11c.34-.15.41-.48.45-.82a4.27,4.27,0,0,0,0-1.07,4.88,4.88,0,0,0-.67-2,4.35,4.35,0,0,0-.7-.9,1.89,1.89,0,0,0-.9-.55,1.75,1.75,0,0,0-1.23.28,3.57,3.57,0,0,0-1.69,2.53c-.09.59,0,1.19-.11,1.78a3.48,3.48,0,0,1-.89,1.87" transform="translate(-63.32 -267.48)"/><path class="cls-2" d="M933,615.39q-4.44-13-8.87-25.94h0c-.58-1.65-1-3.05-1.41-4.17q-.76-2.41-2.41-8.39-4.45-14.18-8.92-28.35c-2.7-8.61-4.74-17.57-8.39-25.79-3.34-7.52-7.61-14.73-13.56-20.49-3.43-3.32-7.57-6.2-12.3-6.86-5.27-.73-9.39,2.13-12.83,5.82a85.65,85.65,0,0,0-5.58,7c-1.25,1.65-2.14,3.56-3.28,5.29q-7.28,12.74-11.83,20.76-5.22,9.19-9.31,16.38t-6.67,11.94l-9.55,17.56h0q-1.5,2.72-3,5.45H795.28c-.37,0-.74.12-1.11.2-3.7.77-7.31,2.89-8.9,6.26a12.5,12.5,0,0,0-1,6.17,14.69,14.69,0,0,0,3.55,8.94,32.92,32.92,0,0,0,3,2.72,37.19,37.19,0,0,0,10.61,6.1c-2.09,6.07-3.75,12.4-3.29,18.79.48,6.77,3.7,13.68,9.61,17.11,2.49,1.44,5.58,2.21,8.25,1.16,3.43-1.36,5.08-5.15,6.38-8.59l9.24-24.35a10,10,0,0,1,.86-1.44,3.37,3.37,0,0,1,1.41-1.26,5.13,5.13,0,0,1,1.95-.28l2.67,0q15.95.36,18.21.56c2.12.15,4.62.23,7.52.23a43,43,0,0,0,12.59-2.46c.51-.14,1-.32,1.52-.51l1.81-.64a6,6,0,0,1,2.86-.28,3.94,3.94,0,0,1,2.45,1.41,6.47,6.47,0,0,1,1,2.76c.16.82.31,1.65.47,2.47q1.77,10.3,3.55,20.59c.61,3.55,1.33,7.33,3.82,9.94,4.9,5.13,13.38,3,20,.52,8.36-3.12,17.64-7.13,20.74-15.49C937.59,629.5,935.29,622.12,933,615.39ZM851.06,586a4.12,4.12,0,0,1-1.82-.28,2.36,2.36,0,0,1-1.17-1.57,3.3,3.3,0,0,1,.18-1.86,18.12,18.12,0,0,1,.73-2l18.71-39.77h.46l8.88,41.2c0,.27.05.53.06.8a2.82,2.82,0,0,1-.48,1.81,3.65,3.65,0,0,1-1.48,1.09,7.59,7.59,0,0,1-2.22.48l-.35,0c-.44,0-.87,0-1.31,0H851.06Z" transform="translate(-63.32 -267.48)"/><path class="cls-2" d="M786.86,642.17a22.59,22.59,0,0,0,2.74-4.24,18.87,18.87,0,0,0,2.2-9.93c-.16-1.92-.87-4-2.54-4.94a7.47,7.47,0,0,0-4.25-.58c-1.24.09-2.47.21-3.7.36s-2.4.39-3.6.59c-1,.17-2.06.3-3.09.45-8.41,1.58-15.32,2.6-20.68,3q6.43-21.52,9.59-30.2,6.56-17.9,14.16-35.93l3.86-9.36q8.31-20.13,12.52-33.3t4.22-18c0-3.35-1.08-5.71-3.22-7.08s-5.88-2.05-11.18-2.05a72.18,72.18,0,0,0-15.09,1.41,31.71,31.71,0,0,0-10.71,3.92,19.72,19.72,0,0,0-6.49,7.08q-8.07,13.34-24,70-7,25.41-10.71,42.49t-3.69,23.52q0,8.89,6.68,11.71c2.49.78,3.78,1.17,3.86,1.17a220.66,220.66,0,0,0,23.29.93q16.14,0,23.76-1.4t11.47-5A57.78,57.78,0,0,0,786.86,642.17Z" transform="translate(-63.32 -267.48)"/><path class="cls-2" d="M756.52,617.42l-.2.79a6.31,6.31,0,0,0-.23.88c0,.22,0,.45,0,.67a7.28,7.28,0,0,1-.36,1.39,3.5,3.5,0,0,0,0,2.75,3,3,0,0,0,1.59,1.3,7.08,7.08,0,0,0,2,.38,31.89,31.89,0,0,0,8.39-.45,3.69,3.69,0,0,1,1.44-.09,1.18,1.18,0,0,1,1,.94c0,.58-.48,1-1,1.36a17.7,17.7,0,0,1-15.1,1.94,7.94,7.94,0,0,1-3-1.62,3.93,3.93,0,0,1-1.35-3,5.29,5.29,0,0,1,.87-2.34,18.68,18.68,0,0,1,3.7-4.47" transform="translate(-63.32 -267.48)"/></svg>